<?xml version="1.0" encoding="utf-8"?><svg version="1.1" xmlns="http://www.w3.org/2000/svg" xmlns:xlink="http://www.w3.org/1999/xlink" x="0px" y="0px" viewBox="0 0 60 60" xml:space="preserve"><g transform="translate(4.000000, 0.000000)"><path fill="none" d="M5 39H47V59H5z"/><path fill="#53C27C" d="M22 29H30V39H22z"/><path fill="#53C27C" d="M22 39H30V60H22z"/><path d="M49,40H3c-0.6,0-1-0.4-1-1v-8c0-1.7,1.3-3,3-3h42c1.7,0,3,1.3,3,3v8C50,39.6,49.6,40,49,40z
							 M4,38h44v-7c0-0.6-0.4-1-1-1H5c-0.6,0-1,0.4-1,1V38z" fill="#4F5661"/><path d="M45,61H7c-1.7,0-3-1.3-3-3V42c0-0.6,0.4-1,1-1s1,0.4,1,1v16c0,0.6,0.4,1,1,1h38
							c0.6,0,1-0.4,1-1V42c0-0.6,0.4-1,1-1s1,0.4,1,1v16C48,59.7,46.7,61,45,61z" fill="#4F5661"/><path d="M24.8,30c-6.5,0-12.4-2.1-16.5-6c-0.4-0.4-0.4-1,0-1.4c0.2-0.2,0.4-0.3,0.7-0.3
							c0.3,0,0.5,0.1,0.7,0.3c3.7,3.5,9.1,5.4,15.1,5.4c0.6,0,1,0.4,1,1S25.3,30,24.8,30z" fill="#4F5661"/><path d="M26,29.3h-0.1c-5.1-0.5-9.7-3.4-10.7-6.8c-0.5-1.8,0.1-3.7,1.7-4.8
							c1.4-1.3,3.5-1.6,5.2-0.8c2.9,1.4,4.9,6,4.9,11.3c0,0.3-0.1,0.6-0.3,0.7C26.5,29.2,26.2,29.3,26,29.3z M20.1,18.5
							c-0.7,0-1.4,0.3-2,0.8c-0.9,0.6-1.3,1.6-1,2.6c0.6,2,3.7,4.4,7.8,5.2c-0.2-4-1.7-7.4-3.7-8.4C20.9,18.6,20.5,18.5,20.1,18.5z" fill="#4F5661"/><path d="M27.2,30c-0.6,0-1-0.4-1-1s0.4-1,1-1c6,0,11.4-1.9,15.1-5.5c0.2-0.2,0.4-0.3,0.7-0.3
							c0.3,0,0.5,0.1,0.7,0.3c0.4,0.4,0.4,1,0,1.4C39.6,27.9,33.7,30,27.2,30z" fill="#4F5661"/><path d="M26,29.3c-0.2,0-0.5-0.1-0.7-0.3c-0.2-0.2-0.3-0.5-0.3-0.7c0-5.2,2.1-9.8,5-11.2
							c1.7-0.8,3.7-0.6,5.1,0.7c1.6,1.1,2.3,3,1.8,4.9C35.9,25.9,31.3,28.8,26,29.3L26,29.3z M32,18.6c-0.4,0-0.8,0.1-1.1,0.3
							c-1.8,0.9-3.6,4-3.8,8.3c4.2-0.7,7.4-3.1,8-5.1c0.3-1.1-0.2-2.2-1.1-2.7C33.4,18.8,32.7,18.6,32,18.6z" fill="#4F5661"/><path d="M26,14c-0.6,0-1-0.4-1-1V2c0-0.6,0.4-1,1-1s1,0.4,1,1v11C27,13.6,26.6,14,26,14z" fill="#CFE6F0"/><path d="M29,7h-6c-0.4,0-0.7-0.2-0.9-0.6c-0.2-0.3-0.1-0.7,0.1-1l3-4C25.4,1.1,25.7,1,26,1
							s0.6,0.1,0.8,0.4l3,4c0.2,0.3,0.2,0.7,0.1,1C29.7,6.8,29.4,7,29,7z M25,5h2l-1-1.3L25,5z" fill="#CFE6F0"/><path fill="#CFE6F0" d="M45.8 8.1L50.4 10.1 47.2 14z"/><path d="M47.2,15c-0.1,0-0.2,0-0.2,0c-0.4-0.1-0.7-0.4-0.8-0.7l-1.4-5.9c-0.1-0.4,0-0.8,0.3-1
							c0.3-0.2,0.7-0.3,1-0.2l4.6,2c0.3,0.1,0.5,0.4,0.6,0.7c0.1,0.3,0,0.6-0.2,0.9l-3.2,3.9C47.7,14.9,47.5,15,47.2,15z M47.2,9.9
							l0.5,1.9l1.1-1.3L47.2,9.9z" fill="#CFE6F0"/><path d="M40,17c-0.4,0-0.7-0.2-0.9-0.5c-0.2-0.3-0.2-0.7,0-1c1.7-2.5,4.1-4.4,6.9-5.5
							c0.5-0.2,1.1,0,1.3,0.5s0,1.1-0.5,1.3c-2.4,0.9-4.5,2.6-5.9,4.7C40.7,16.8,40.4,17,40,17z" fill="#CFE6F0"/><path fill="#CFE6F0" d="M6.6 8.1L2 10.1 5.2 14z"/><path d="M5.2,15c-0.3,0-0.6-0.1-0.8-0.4l-3.2-3.9C1,10.5,0.9,10.2,1,9.9c0.1-0.3,0.3-0.6,0.6-0.7
							l4.6-2c0.3-0.1,0.7-0.1,1,0.2c0.3,0.2,0.4,0.6,0.3,1l-1.3,5.8c-0.1,0.4-0.4,0.7-0.8,0.7C5.3,15,5.3,15,5.2,15z M3.6,10.5
							l1.1,1.3l0.5-1.9L3.6,10.5z" fill="#CFE6F0"/><path d="M12.4,17c-0.4,0-0.7-0.2-0.9-0.5C10,14.4,8,12.8,5.6,11.8c-0.4-0.1-0.7-0.4-0.8-0.8
							c-0.1-0.4,0.1-0.8,0.4-1C5.5,9.8,6,9.8,6.3,10c2.8,1.1,5.2,3,6.9,5.5c0.1,0.2,0.2,0.5,0.1,0.8s-0.2,0.5-0.5,0.6
							C12.7,17,12.5,17,12.4,17z" fill="#CFE6F0"/></g></svg>