<svg width="48" height="49" viewBox="0 0 48 49" fill="none" xmlns="http://www.w3.org/2000/svg">
<path fill-rule="evenodd" clip-rule="evenodd" d="M23.6006 13.9533C22.5004 10.5099 19.8506 8.02417 15.8758 8.02417C11.006 8.02417 7.76947 11.7938 7.76947 16.431C7.76947 16.431 9.16304 17.2753 11.8084 14.7566C13.1498 15.7129 14.6523 16.4202 16.2441 16.8447C19.9639 17.8351 22.4615 16.9803 23.8567 16.5028C23.9185 16.4816 23.9782 16.4612 24.0357 16.4417L23.6006 13.9533ZM10.9075 31.7559L7.76904 33.7887L12.3126 41.2433L15.2237 39.7749L10.9075 31.7559ZM24.036 33.7887L21.0331 31.7559L16.3691 39.7749L19.3711 41.2433L24.036 33.7887Z" fill="#D3E5EF"/>
<path fill-rule="evenodd" clip-rule="evenodd" d="M29.482 35.2749L31.6397 38.1913V38.1904C31.8316 38.4482 31.8506 38.7959 31.6878 39.0731C28.4228 44.6687 22.3733 48.1459 15.9031 48.1459C9.42117 48.1459 3.36993 44.6643 0.108477 39.0588C-0.0523088 38.7817 -0.0330377 38.4355 0.157515 38.1779L2.3125 35.2669C3.64989 33.4569 5.50529 32.3897 7.43024 32.3139L10.286 30.6556V27.8649C8.46538 26.2359 7.07628 23.9321 7.07628 21.2929V19.2583C7.07628 18.8152 7.43554 18.4559 7.87871 18.4559C8.32189 18.4559 8.68115 18.8152 8.68115 19.2583V21.2929C8.68115 25.3515 13.1177 28.7761 15.9031 28.7761C18.6893 28.7761 23.125 25.3515 23.125 21.2929V17.5919C21.5968 18.0538 19.2376 18.5112 16.035 17.6579C14.5811 17.27 13.1972 16.6562 11.9337 15.8391C9.25444 18.1269 7.6469 17.271 7.46234 17.1604C7.22339 17.0142 7.07717 16.7538 7.07717 16.4739C7.07717 11.2875 10.8602 7.37695 15.8772 7.37695C19.8466 7.37695 22.9814 9.77177 24.2635 13.7839C24.3589 14.0592 24.2977 14.3645 24.1035 14.5817C23.9093 14.7988 23.6126 14.8937 23.3285 14.8294C23.0443 14.7652 22.8173 14.5521 22.7353 14.2725C21.661 10.9103 19.1609 8.98182 15.8772 8.98182C11.9265 8.98182 9.00123 11.8108 8.707 15.8007C9.17509 15.7428 10.0444 15.4459 11.3105 14.2404C11.5893 13.9734 12.019 13.9434 12.3322 14.1691C13.5764 15.0564 14.9702 15.7124 16.4469 16.1057C19.8794 17.0208 22.1399 16.2474 23.49 15.7855L23.4923 15.7847L23.6706 15.7232C23.9156 15.6396 24.1859 15.6796 24.3962 15.8305C24.6064 15.9815 24.7307 16.2248 24.7298 16.4837V21.2938C24.7298 23.9329 23.3416 26.2359 21.5201 27.8649V30.6573L24.3616 32.3139C26.291 32.3897 28.1473 33.4596 29.482 35.2749ZM15.9025 30.3809C17.1151 30.3809 18.5532 29.8967 19.9147 29.0586V31.5078L15.9025 38.3865L11.8903 31.5078V29.0586C13.2527 29.8967 14.6908 30.3809 15.9025 30.3809ZM3.6018 36.2217L1.76779 38.7013C4.67032 43.326 9.6474 46.2428 15.1007 46.5152V40.1947L10.5357 32.3674L8.05709 33.8055C7.93451 33.8761 7.79555 33.9133 7.65409 33.9134C6.14195 33.9134 4.70292 34.7328 3.6018 36.2217ZM16.706 40.1965V46.5153C22.1534 46.2411 27.1255 43.3296 30.03 38.7129L28.1906 36.2281C27.1082 34.756 25.6318 33.9135 24.1383 33.9135C23.9966 33.9135 23.8566 33.876 23.7353 33.8047L21.271 32.3701L16.706 40.1965Z" fill="#4F5661"/>
<path d="M15.9031 25.7804C14.6485 25.779 13.4897 25.1089 12.8627 24.0222C12.6422 23.6376 12.7747 23.147 13.1588 22.9256C13.5432 22.7059 14.0328 22.8387 14.2536 23.2225C14.5941 23.8114 15.2228 24.174 15.9031 24.174C16.5833 24.174 17.212 23.8114 17.5525 23.2225C17.774 22.8384 18.2645 22.706 18.6492 22.9264C19.0326 23.1476 19.1645 23.6379 18.9434 24.0231C18.3158 25.1091 17.1574 25.7787 15.9031 25.7804Z" fill="#4F5661"/>
<mask id="mask0" mask-type="alpha" maskUnits="userSpaceOnUse" x="26" y="0" width="23" height="23">
<path fill-rule="evenodd" clip-rule="evenodd" d="M48.0002 22.4682V0H26.3345V22.4682H48.0002Z" fill="white"/>
</mask>
<g mask="url(#mask0)">
<path fill-rule="evenodd" clip-rule="evenodd" d="M26.5692 22.2334C26.7198 22.3839 26.924 22.4684 27.1369 22.4682C27.3409 22.4684 27.5372 22.3909 27.6861 22.2515L32.6701 17.5965H45.9941C47.1015 17.5965 48.0002 16.7477 48.0002 15.7045V0.802434C48.0002 0.359262 47.6409 0 47.1978 0H28.3406C27.235 0 26.3345 0.848797 26.3345 1.89107V21.6657C26.3342 21.8786 26.4187 22.0828 26.5692 22.2334ZM27.9391 1.89112C27.9391 1.75649 28.1041 1.60491 28.3403 1.60491H46.3951V15.7046C46.3951 15.8401 46.231 15.9917 45.9939 15.9917H32.3525C32.1493 15.9918 31.9537 16.0689 31.8051 16.2074L27.9391 19.8175V1.89112Z" fill="#4F5661"/>
</g>
<path d="M35.9644 4.59167L35.0371 3.69116L31.9424 6.88217L30.4089 5.47524L29.5449 6.43727L31.6437 8.35241L31.6473 8.35063L31.995 8.68676L35.9644 4.59167Z" fill="#53C27C"/>
<path d="M43.1861 7.22206H37.569C37.1259 7.22206 36.7666 6.86279 36.7666 6.41962C36.7666 5.97645 37.1259 5.61719 37.569 5.61719H43.1861C43.6292 5.61719 43.9885 5.97645 43.9885 6.41962C43.9885 6.86279 43.6292 7.22206 43.1861 7.22206Z" fill="#D3E5EF"/>
<path d="M35.9644 9.40637L35.0371 8.50586L31.9424 11.6969L30.4089 10.2899L29.5449 11.252L31.6437 13.1671L31.6473 13.1653L31.995 13.5015L35.9644 9.40637Z" fill="#53C27C"/>
<path d="M41.5812 12.0365H37.569C37.1259 12.0365 36.7666 11.6772 36.7666 11.2341C36.7666 10.7909 37.1259 10.4316 37.569 10.4316H41.5812C42.0244 10.4316 42.3836 10.7909 42.3836 11.2341C42.3836 11.6772 42.0244 12.0365 41.5812 12.0365Z" fill="#D3E5EF"/>
</svg>
