<?xml version="1.0" encoding="UTF-8"?>
<svg width="52px" height="45px" viewBox="0 0 52 45" version="1.1" xmlns="http://www.w3.org/2000/svg" xmlns:xlink="http://www.w3.org/1999/xlink">
    <!-- Generator: Sketch 56.3 (81716) - https://sketch.com -->
    <title>Group 22</title>
    <desc>Created with Sketch.</desc>
    <defs>
        <polygon id="path-1" points="0 0 51.9998267 0 51.9998267 22.2552909 0 22.2552909"></polygon>
    </defs>
    <g id="Simplified-Comp-Chart" stroke="none" stroke-width="1" fill="none" fill-rule="evenodd">
        <g id="Free-Edition-Copy-7" transform="translate(-404.000000, -375.000000)">
            <g id="Group-30" transform="translate(149.000000, 208.000000)">
                <g id="Group-14">
                    <g id="Group-5">
                        <g id="Group-22" transform="translate(255.000000, 167.000000)">
                            <polygon id="Fill-1" fill="#CAE7F1" points="10 18.5530829 26.0844667 25.9530409 41.2208 19.4775481 41.2208 16.7024579 26.0844667 22.2534856 10.3986667 16"></polygon>
                            <g id="Group-21" transform="translate(0.000000, 0.572643)">
                                <path d="M10.8834146,17.9154723 L25.9928812,24.867179 L40.2209479,18.7814699 L40.2209479,17.8442944 L26.2944812,22.9504603 C26.0847479,23.0275697 25.8516146,23.0241803 25.6410146,22.9411394 L11.0090812,17.1079423 L10.8834146,17.9154723 Z M25.9798812,26.7059411 C25.8498812,26.7059411 25.7190146,26.6779783 25.5985479,26.6229002 L9.51408123,19.2220949 C9.15528123,19.0577079 8.94988123,18.6814819 9.0105479,18.2976298 L9.4083479,15.7436995 C9.4499479,15.4793245 9.61288123,15.2463016 9.8529479,15.1141141 C10.0904146,14.9819266 10.3772812,14.9632848 10.6329479,15.0649675 L25.9937479,21.1888077 L40.8016146,15.7589519 C41.0789479,15.6581165 41.3874812,15.6954002 41.6275479,15.8589399 C41.8693479,16.0224795 42.0132146,16.2919387 42.0132146,16.5791923 L42.0132146,19.3551298 C42.0132146,19.703393 41.8026146,20.017762 41.4758812,20.1575757 L26.3386812,26.6322211 C26.2242812,26.6813678 26.1029479,26.7059411 25.9798812,26.7059411 L25.9798812,26.7059411 Z" id="Fill-2" fill="#CAE7F1"></path>
                                <g id="Group-6">
                                    <mask id="mask-2" fill="white">
                                        <use xlink:href="#path-1"></use>
                                    </mask>
                                    <g id="Clip-5"></g>
                                    <path d="M3.22226667,11.1278996 L26,20.4301713 L48.7777333,11.1278996 L26,1.825628 L3.22226667,11.1278996 Z M26,22.2553756 C25.8821333,22.2553756 25.766,22.232497 25.6542,22.1875871 L0.5512,11.9371244 C0.216666667,11.7998528 0,11.481247 0,11.1278996 C0,10.7745523 0.216666667,10.4559465 0.5512,10.3195222 L25.6542,0.0673647837 C25.8769333,-0.0224549279 26.1239333,-0.0224549279 26.3466667,0.0673647837 L51.4488,10.3195222 C51.7833333,10.4559465 52,10.7745523 52,11.1278996 C52,11.481247 51.7833333,11.7998528 51.4488,11.9371244 L26.3466667,22.1875871 C26.2348667,22.232497 26.1178667,22.2553756 26,22.2553756 L26,22.2553756 Z" id="Fill-4" fill="#4D5662" mask="url(#mask-2)"></path>
                                </g>
                                <path d="M40.8978619,32.5216226 C40.6040619,32.5216226 40.3171952,32.3809615 40.1455952,32.1233654 C39.8751952,31.717482 39.9921952,31.1751743 40.4073286,30.9107993 C40.8319952,30.6404928 41.2453952,30.3608654 41.6613952,30.0625962 L41.6613952,15.8761659 C41.6613952,15.3923257 42.0626619,15 42.5575286,15 C43.0532619,15 43.4536619,15.3923257 43.4536619,15.8761659 L43.4536619,30.5015264 C43.4536619,30.7760697 43.3227952,31.0345132 43.1000619,31.1997476 C42.5271952,31.6234255 41.9664619,32.0098197 41.3857952,32.3801142 C41.2349952,32.4758654 41.0642619,32.5216226 40.8978619,32.5216226" id="Fill-7" fill="#4D5662"></path>
                                <path d="M25.9797333,35.885625 C18.0436667,35.885625 12.1564,32.3826563 9.35186667,30.2947716 C9.13086667,30.1295373 9,29.8710938 9,29.5973978 L9,15.8761659 C9,15.3914784 9.4004,15 9.89613333,15 C10.3918667,15 10.7931333,15.3914784 10.7931333,15.8761659 L10.7931333,29.1584675 C13.5387333,31.1294171 18.8869333,34.1332933 25.9797333,34.1332933 C28.7409333,34.1332933 31.4848,33.6791106 34.1359333,32.7834555 C34.6004667,32.6266947 35.1126667,32.8690385 35.2756,33.3257632 C35.4376667,33.7833353 35.1889333,34.2824279 34.7209333,34.4408834 C31.8817333,35.3992428 28.9402667,35.885625 25.9797333,35.885625" id="Fill-9" fill="#4D5662"></path>
                                <path d="M24,11.8761659 C24,12.360006 24.8025333,12.7523317 25.7922667,12.7523317 C26.7828667,12.7523317 27.5854,12.360006 27.5854,11.8761659 C27.5854,11.3923257 26.7828667,11 25.7922667,11 C24.8025333,11 24,11.3923257 24,11.8761659" id="Fill-11" fill="#4D5662"></path>
                                <path d="M25.6892667,13.5055108 C24.131,13.5055108 23,12.7683113 23,11.7523317 C23,10.7371995 24.131,10 25.6892667,10 C27.2475333,10 28.3785333,10.7371995 28.3785333,11.7523317 C28.3785333,12.7683113 27.2475333,13.5055108 25.6892667,13.5055108" id="Fill-13" fill="#4D5662"></path>
                                <path d="M37.3537064,36.7551165 C36.8588397,36.7551165 36.457573,36.3627908 36.457573,35.8789506 L36.457573,17.9709338 L25.4977064,12.6622499 C25.0557064,12.4470215 24.8737064,11.921661 25.092973,11.4878148 C25.3122397,11.054816 25.8478397,10.8760239 26.294173,11.0912523 L37.752373,16.6414326 C38.0574397,16.7897199 38.2498397,17.0939206 38.2498397,17.4269314 L38.2498397,35.8789506 C38.2498397,36.3627908 37.8494397,36.7551165 37.3537064,36.7551165" id="Fill-15" fill="#4D5662"></path>
                                <path d="M38.0699138,35 L37.0619805,35 C36.5411138,35 36.1017138,35.2931851 36.0384471,35.6838161 L35.0079805,42.0127163 C34.9317138,42.4770673 35.4118471,42.8871875 36.0306471,42.8871875 L37.6885805,42.8871875 L39.3465138,42.8871875 C39.9661805,42.8871875 40.4445805,42.4770673 40.3691805,42.0127163 L39.3387138,35.6838161 C39.2754471,35.2931851 38.8360471,35 38.3151805,35 L38.0699138,35" id="Fill-17" fill="#FF8173"></path>
                                <path d="M35.8142243,41.8719351 C35.8436909,41.8804087 35.8818243,41.8871875 35.9277576,41.8871875 L39.2436243,41.8871875 C39.2895576,41.8871875 39.3268243,41.8804087 39.3562909,41.8719351 L38.3639576,35.7811418 C38.3336243,35.7675841 38.2824909,35.7523317 38.2122909,35.7523317 L36.9590909,35.7523317 C36.8888909,35.7523317 36.8377576,35.7675841 36.8074243,35.7811418 L35.8142243,41.8719351 Z M39.2436243,43.6395192 L35.9277576,43.6395192 C35.3115576,43.6395192 34.7508243,43.3997175 34.3850909,42.9819712 C34.0774243,42.6303185 33.9474243,42.1930829 34.0193576,41.7516106 L35.0506909,35.421863 C35.1858909,34.5973858 35.9884243,34 36.9590909,34 L38.2122909,34 C39.1829576,34 39.9854909,34.5973858 40.1198243,35.4210156 L41.1520243,41.7507632 C41.2230909,42.1930829 41.0930909,42.6303185 40.7854243,42.9819712 C40.4205576,43.3997175 39.8580909,43.6395192 39.2436243,43.6395192 L39.2436243,43.6395192 Z" id="Fill-19" fill="#FF8173"></path>
                            </g>
                            <path d="M17.9636364,31.4375 C17.9636364,36.0973011 13.9422314,39.875 8.98181818,39.875 C4.02140496,39.875 0,36.0973011 0,31.4375 C0,26.7776989 4.02140496,23 8.98181818,23 C13.9422314,23 17.9636364,26.7776989 17.9636364,31.4375" id="Fill-1" fill="#00C675"></path>
                            <path d="M12.6181818,33.5234375 C12.6181818,32.0117188 11.0055078,31.3317969 9.60976901,30.8747656 C8.44346671,30.4880469 7.91105633,30.1125781 7.91105633,29.5620313 C7.91105633,29.1872656 8.35742802,28.7421875 9.17736942,28.7421875 C9.96863126,28.7421875 11.0636023,29.3278906 11.1783206,29.38625 C11.3511334,29.4804688 11.5673332,29.38625 11.6827868,29.2463281 L12.2299046,28.5783594 C12.3299154,28.4609375 12.2865284,28.2619531 12.1431306,28.1916406 C11.9078111,28.0475 11.1084601,27.6185938 10.0237843,27.4653125 L10.0237843,26.3515625 C10.0237843,26.1567969 9.86347286,26 9.66639277,26 L8.95160977,26 C8.75452968,26 8.59421827,26.1567969 8.59421827,26.3515625 L8.59421827,27.45125 C6.79402405,27.665 6.02482342,28.7232031 6.02482342,29.65625 C6.02482342,31.0392969 7.37864595,31.7424219 8.73099773,32.1875 C9.94068707,32.5861719 10.5598715,32.9960938 10.5598715,33.59375 C10.5598715,34.0971875 9.9980462,34.4958594 9.24943602,34.4958594 C8.31330561,34.4958594 7.14773869,33.8039844 7.07567209,33.7695312 C6.94624636,33.6872656 6.701367,33.6872656 6.58664874,33.8517969 L6.06821045,34.578125 C5.93878472,34.7658594 6.01085132,34.8242188 6.14027705,34.9296875 C6.38809791,35.1209375 7.2139223,35.6567187 8.59421827,35.8036719 L8.59421827,36.8984375 C8.59421827,37.0925 8.75452968,37.25 8.95160977,37.25 L9.66639277,37.25 C9.86347286,37.25 10.0237843,37.0925 10.0237843,36.8984375 L10.0237843,35.7938281 C11.6335168,35.5660156 12.6181818,34.5816406 12.6181818,33.5234375" id="Fill-29" fill="#FFFFFF"></path>
                        </g>
                    </g>
                </g>
            </g>
        </g>
    </g>
</svg>