<?xml version="1.0" encoding="utf-8"?><svg version="1.1" xmlns="http://www.w3.org/2000/svg" xmlns:xlink="http://www.w3.org/1999/xlink" x="0px" y="0px" viewBox="0 0 60 60" xml:space="preserve"><g transform="translate(2.000000, 0.000000)"><path d="M39.7,42.4c-2.4,1.2-6,1.8-10.2,1.9s-7.8-0.7-10.2-1.9c-2.8-1.4-4-3.4-2.9-6
							c0.5,1.4,1.5,1.5,2.9,2.4c2.4,1.6,6,2.4,10.2,2.5s7.8-0.9,10.2-2.5c1.4-0.9,2.4-1.1,2.9-2.4C43.7,39,42.5,41.1,39.7,42.4z" fill="#CFE6F0"/><path d="M10,40v13.8c0,0.9-0.7,1.6-1.5,1.7L1,57.1V37.4l7.2,0.8C9.2,38.3,10,39,10,40z" fill="#CFE6F0"/><path d="M55.6,40.7l-0.8-1c-0.4-0.4-0.8-0.8-1.2-1.1l0.9-0.5c0.2-0.1,0.4-0.4,0.5-0.6
							c0.1-0.3,0-0.5-0.2-0.7l-1-1.5c-1.7-2.2-4.8-2.8-7.3-1.5c-0.5,0.3-0.7,0.9-0.4,1.4s0.9,0.6,1.4,0.4c1.6-0.8,3.5-0.5,4.7,0.9
							l0.4,0.6l-1.3,0.8c-1.2-0.2-2.4,0-3.5,0.6l-0.1,0L37,45.4c-0.5,0.3-0.6,0.9-0.3,1.4s0.9,0.6,1.4,0.3L48.8,40
							c1.6-0.8,3.4-0.4,4.5,1l0.1,0.1L36.2,52.3c-0.1,0.1-0.3,0.2-0.4,0.2c0.2-0.4,0.2-0.9,0.2-1.3c0-2.2-1.8-3.9-4-3.9h-9
							c-0.6,0-1,0.4-1,1s0.4,1,1,1h9c1.1,0,2,0.9,2,2c0,1.1-0.9,2-2,2H17c-2.4,0-4.7-1.2-6-3.2v-6.6c0-1.6,1.3-3,3-3
							c0.6,0,1-0.4,1-1s-0.4-1-1-1c-1.1,0-2.1,0.4-3,1.1c-0.3-1.2-1.3-2.1-2.6-2.2l-7.3-0.8c-0.3,0-0.6,0.1-0.8,0.2
							C0.1,36.9,0,37.1,0,37.4v19.7c0,0.3,0.1,0.6,0.4,0.8C0.6,58,0.8,58.1,1,58.1h0.2l7.5-1.7C10,56.1,11,55,11,53.7v-0.8
							c1.7,1.4,3.8,2.2,6,2.2h15.2c1.8,0,3.5-0.4,5.1-1.2l18.1-11.8c0.2-0.2,0.4-0.4,0.4-0.7C55.9,41.2,55.8,40.9,55.6,40.7z
							 M9,53.7c0,0.4-0.3,0.7-0.7,0.8L2,55.9V38.5l6.1,0.7C8.6,39.2,9,39.5,9,40V53.7z" fill="#4F5661"/><path d="M35,30.2c0-2.2-1.4-3.5-4.6-4.1c-2.8-0.6-3-1.2-3-2c0-0.8,0.9-1.4,2.1-1.4
							c1.2,0,2.4,0.4,3.3,1.2l0.5,0.4l1.5-2l-0.4-0.3c-1-0.9-2.3-1.4-3.6-1.6v-1.7c0-0.5-0.4-0.8-0.8-0.8h-0.9
							c-0.5,0-0.8,0.4-0.8,0.8v1.8c-2,0.3-3.5,1.9-3.5,3.9c0,2.8,2.3,3.7,4.8,4.2c2.7,0.6,2.9,1.1,2.9,1.9c0,0.9-0.9,1.6-2.3,1.6
							c-1.5,0-2.9-0.6-4-1.6l-0.4-0.4l-1.7,2l0.4,0.4c1.1,1,2.4,1.7,3.9,2v1.8c0,0.5,0.4,0.8,0.8,0.8H30c0.5,0,0.8-0.4,0.8-0.8v-1.8
							C33.3,34,35,32.4,35,30.2z" fill="#53C27C"/><path d="M26.2,13l-0.3,0.1C26,13,26.1,13,26.2,13z" fill="#4F5661"/><path d="M34.2,13.4c-1.5,0.6-3.1,0.8-4.7,0.8c-1.6,0-3.2-0.3-4.7-0.8V9.2c1.5,0.6,3.1,0.8,4.7,0.8
							c1.6,0,3.2-0.3,4.7-0.8V13.4z" fill="#CFE6F0"/><path d="M44.6,23c-2.4-6.6-8.2-10.3-9.3-11V9.2c0-1.3,1.8-4.1,3-5.6c0.2-0.3,0.3-0.7,0.1-1
							C38.2,2.2,37.8,2,37.4,2H21.6c-0.4,0-0.7,0.2-0.9,0.5c-0.2,0.3-0.1,0.7,0.1,1c1.2,1.5,3,4.4,3,5.6v3.2
							c-2.2,1.3-7.3,4.9-9.3,10.5c-1.3,3.1-1.5,6.5-0.7,9.7c0.6,2.2,1.8,4.2,3.6,5.7c2.9,2.5,7,3.9,12,3.9h0.5
							c4.9-0.1,9.1-1.5,12-3.9c1.7-1.5,3-3.5,3.6-5.6C46.2,29.5,45.9,26.1,44.6,23z M23.5,4h12c-1,1.4-1.7,2.9-2.2,4.5
							c-2.5,0.8-5.2,0.8-7.7,0C25.2,6.9,24.5,5.3,23.5,4z M33.2,10.6v2.1c-2.4,0.7-5,0.7-7.5,0v-2.1C28.2,11.2,30.8,11.2,33.2,10.6z
							 M43.4,32.2c-0.5,1.8-1.5,3.5-3,4.7c-2.5,2.2-6.4,3.5-10.9,3.5s-8.4-1.3-10.9-3.5c-1.5-1.2-2.5-2.9-3-4.7
							c-0.7-2.9-0.4-5.8,0.7-8.5c1.7-4.7,6-7.9,8.1-9.3c1.6,0.6,3.3,0.9,5.1,0.9c1.7,0,3.5-0.3,5.1-0.9l0.4-0.1
							c3.5,2.3,6.1,5.6,7.7,9.4C43.8,26.3,44.1,29.3,43.4,32.2L43.4,32.2z" fill="#4F5661"/></g></svg>