<?xml version="1.0" encoding="utf-8"?><svg version="1.1" xmlns="http://www.w3.org/2000/svg" xmlns:xlink="http://www.w3.org/1999/xlink" x="0px" y="0px" viewBox="0 0 60 60" xml:space="preserve"><path d="M1.5,47.8c0,0,6.1,9.2,22.4,10.2l-3.1-5.1l-1-6.1l-5.1-0.5L13,38.4c-3.5,0.6-6.6,2.5-8.7,5.4
							L1.5,47.8z" fill="#CFE6F0"/><path d="M46.3,47.8c-6,6-14,9.6-22.4,10.2l3.1-5.1l1-7.1l5.2,0.5l1.6-7.9c3.5,0.6,6.6,2.5,8.7,5.4
							L46.3,47.8z" fill="#CFE6F0"/><path d="M49.2,60c8.2-2.5,10.2-7.9,10.2-7.9V39.9l-10.2-4.3l-10.2,4.3v12.2
							C39.1,52.1,41,58,49.2,60z" fill="#53C27C"/><path d="M23.8,59c-0.6,0-1-0.5-1-1V44.7c0-0.6,0.5-1,1-1s1,0.5,1,1V58C24.8,58.5,24.4,59,23.8,59z" fill="#4F5661"/><path d="M23.8,59c-0.6,0-1-0.5-1-1V44.7c0-0.6,0.5-1,1-1s1,0.5,1,1V58C24.8,58.5,24.4,59,23.8,59z" fill="#4F5661"/><path d="M23.8,59c-0.6,0-1-0.5-1-1V44.7c0-0.6,0.5-1,1-1s1,0.5,1,1V58C24.8,58.5,24.4,59,23.8,59z" fill="#4F5661"/><path d="M23.8,59c-0.6,0-1-0.5-1-1V44.7c0-0.6,0.5-1,1-1s1,0.5,1,1V58C24.8,58.5,24.4,59,23.8,59z" fill="#4F5661"/><path d="M23.8,27.3c-1.6,0-3.1-0.9-3.9-2.3c-0.3-0.5-0.1-1.1,0.4-1.4c0.2-0.1,0.5-0.2,0.8-0.1
							s0.5,0.2,0.6,0.5c0.2,0.3,0.4,0.6,0.7,0.8c0.9,0.6,2,0.6,2.9,0c0.3-0.2,0.5-0.5,0.7-0.8c0.1-0.2,0.4-0.4,0.6-0.5
							s0.5,0,0.8,0.1c0.5,0.3,0.7,0.9,0.4,1.4c-0.3,0.5-0.8,1-1.3,1.4C25.7,27,24.8,27.3,23.8,27.3z" fill="#4F5661"/><path d="M33.2,34.6c-0.6,0-1-0.5-1-1s0.5-1,1-1c1.7-0.1,3.5-0.5,5.1-1.2c-0.8-1.8-2.2-5.5-1.4-9
							c2.3-9.9,0.8-13.4-0.4-14.6c-0.9-0.9-2.2-1.2-3.4-0.9c-0.4,0.1-0.7-0.1-1-0.4C30.7,4.6,28.7,2,22.8,2c-4.3,0-7.6,1.3-9.7,3.8
							c-2.8,3.4-3.6,8.9-2.2,16.5c0.6,3.1,0.1,6.3-1.4,9.1c1.6,0.7,3.3,1.1,5.1,1.1c0.6,0,1,0.5,1,1s-0.5,1-1,1
							c-2.5,0-4.9-0.6-7.1-1.8c-0.2-0.2-0.4-0.4-0.4-0.7c-0.1-0.3,0-0.6,0.2-0.8c1.6-2.5,2.2-5.6,1.7-8.6C7.5,14.6,8.4,8.5,11.6,4.6
							C14.1,1.6,18,0,22.8,0c5.9,0,8.5,2.2,10.5,4.7c1.7-0.2,3.4,0.4,4.6,1.6c2.5,2.6,2.8,8.2,0.9,16.5c-0.9,4.1,1.7,8.5,1.7,8.6
							c0.1,0.2,0.2,0.5,0.1,0.8s-0.3,0.5-0.6,0.6C37.9,33.8,35.5,34.4,33.2,34.6z" fill="#4F5661"/><path d="M38.2,54.2c-0.1-0.2-0.3-0.4-0.6-0.5c-0.3-0.1-0.5-0.1-0.8,0.1c-4,2.1-8.5,3.2-13,3.2
							c-4.9,0-9.7-1.3-14-3.7l-0.5,0.9l0.4-0.9c-2.8-1.6-5.3-3.6-7.3-6l3.8-3.9c1.6-1.9,3.9-3.2,6.4-3.5c0,0.7,0,1.4,0,2
							c0.1,1.8,0.5,3.6,1.1,5.3c0.2,0.5,0.7,0.8,1.2,0.7L18,47l1.7,5.2c0.1,0.4,0.5,0.7,1,0.7c0.1,0,0.2,0,0.3,0
							c0.3-0.1,0.5-0.3,0.6-0.5c0.1-0.2,0.1-0.5,0.1-0.8l-2-6.1c-0.1-0.5-0.6-0.8-1.2-0.7l-3.1,0.8c-0.4-1.3-0.6-2.6-0.7-3.9
							c-0.1-1-0.1-1.9,0-2.9c0-0.1,0-0.2,0-0.3l2.4-1.9c0.2,0.9,0.6,1.7,1.2,2.4l4.9,6.5c0,0,0.1,0,0.1,0.1c0,0,0.1,0.1,0.1,0.1
							l0.1,0.1h0.1c0.1,0.1,0.3,0.1,0.4,0.1c0.1,0,0.3,0,0.4-0.1h0.1c0,0,0,0,0,0c0,0,0.1-0.1,0.1-0.1c0,0,0.1,0,0.1-0.1l4.9-6.5
							c0.5-0.7,0.9-1.5,1.2-2.4l2.4,1.9c0,0.1,0,0.3,0,0.4c0.2,1.3,0.2,2.6,0,3.8c-0.1,1-0.3,2-0.7,3l-3.2-0.8
							c-0.5-0.1-1,0.2-1.2,0.7l-2,6.1c-0.1,0.3-0.1,0.6,0,0.8s0.4,0.5,0.6,0.5c0.1,0,0.2,0,0.3,0c0.4,0,0.8-0.3,1-0.7l1.7-5.2
							l3.2,0.8c0.5,0.1,1-0.1,1.2-0.6c0.5-1.4,0.9-2.8,1.1-4.3c0.1-1,0.2-2,0.1-3.1c0.6,0.1,1.1,0.2,1.6,0.4c0.1,0,0.2,0,0.3,0
							c0.5,0,0.9-0.4,1-0.9c0.1-0.5-0.2-1-0.7-1.1c-0.6-0.2-1.3-0.4-1.9-0.4l-4.5-3.6v-3.6c0-0.1,0-0.1,0-0.2
							c0.2-0.2,0.4-0.4,0.6-0.6c2.2-2.1,3.4-4.9,3.5-7.9v-8.7c0-0.1,0-0.1,0-0.2c0-0.1,0-0.1,0-0.2c0,0,0-0.1-0.1-0.1
							c0-0.1-0.1-0.2-0.2-0.2c0,0-0.1-0.1-0.2-0.1c-0.1,0-0.1-0.1-0.2-0.1c-0.1,0-0.2,0-0.2,0c0,0-0.1,0-0.1,0c-0.1,0-0.1,0-0.2,0
							h-0.2c-3,1.2-6.4,1.3-9.5,0.4c-2-0.5-3.8-1.4-5.5-2.6c-0.2-0.2-0.5-0.2-0.8-0.2c-0.3,0-0.5,0.2-0.7,0.4
							c-1.1,1.3-2.4,2.3-4,2.9c-0.5,0.1-0.8,0.5-0.8,1v7.6c0.1,3,1.4,5.8,3.5,7.9c0.2,0.2,0.4,0.4,0.6,0.6c0,0.1,0,0.1,0,0.2v3.6
							l-4.2,3.4l-0.1,0.1l-0.2,0.1c-2.9,0.5-5.6,1.9-7.5,4.2l-4.4,4.6c0,0-0.1,0.1-0.1,0.1c0,0.1-0.1,0.1-0.1,0.2
							c0,0.1,0,0.1-0.1,0.2c0,0.1,0,0.1,0,0.2c0,0.1,0,0.1,0,0.2c0,0.1,0,0.1,0,0.2c0,0.1,0.1,0.1,0.1,0.2c0,0,0.1,0.1,0.1,0.1
							l0.1,0.1c0.1,0.2,0.3,0.3,0.4,0.4c2.3,2.6,5,4.9,8,6.6L8.8,55c8.9,5,19.8,5.3,29,0.5C38.3,55.3,38.5,54.7,38.2,54.2z
							 M14.6,21.8v-6.9c1.4-0.6,2.6-1.5,3.6-2.6c1.6,1.1,3.4,1.9,5.3,2.4c3.1,0.8,6.4,0.8,9.5-0.1v7.3c-0.1,2.5-1.1,4.8-2.9,6.5
							c-1.9,1.9-4.4,3.2-6.3,3.2c-1.9,0-4.4-1.3-6.2-3.2C15.8,26.6,14.7,24.3,14.6,21.8z M23.8,33.5c1.8-0.1,3.6-0.7,5.1-1.7l0,2.7
							c0,1.1-0.4,2.2-1,3.1l-4.1,5.4l-4.1-5.4c-0.7-0.9-1-2-1-3.1v-2.7C20.2,32.9,22,33.5,23.8,33.5L23.8,33.5z" fill="#4F5661"/><path d="M56.2,44.2l-1.4-1.4c-0.1-0.1-0.2-0.1-0.4-0.1c-0.1,0-0.3,0.1-0.4,0.1l-6.3,6.4l-2.9-2.7
							c-0.1-0.1-0.2-0.2-0.4-0.1c-0.1,0-0.3,0.1-0.4,0.2L42.8,48c-0.2,0.2-0.2,0.5,0,0.7l4.1,3.9l0.5,0.5c0.1,0.1,0.2,0.1,0.3,0.1
							c0.1,0,0.3-0.1,0.4-0.2l7.9-8.1c0.1-0.1,0.1-0.2,0.1-0.4C56.3,44.4,56.2,44.3,56.2,44.2z" fill="#FFFFFF"/></svg>